# Blender 5.0.1
# www.blender.org
mtllib clicker.mtl
o Plane.006
v 8.407552 0.000000 4.526031
v 8.283636 0.000000 4.769731
v 8.324942 0.000000 4.629294
v 8.399291 -0.000000 3.542969
v 8.283636 0.000000 4.926691
v 8.337333 0.000000 5.067128
v 8.432335 0.000000 5.174521
v 8.539728 0.000000 5.248871
v 8.700818 0.000000 5.290176
v 8.886691 0.000000 5.265393
v 9.006476 0.000000 5.191043
v 9.097347 0.000000 5.120825
v 8.304289 -0.000000 3.373618
v 8.267115 -0.000000 3.208397
v 8.300159 -0.000000 3.063829
v 8.382769 -0.000000 2.919261
v 8.469509 -0.000000 2.832520
v 8.585164 -0.000000 2.770562
v 8.700818 -0.000000 2.762302
v 8.828864 -0.000000 2.774693
v 8.932127 -0.000000 2.824259
v 9.010607 -0.000000 2.894478
v 9.080826 -0.000000 2.956436
v 9.804383 0.000000 4.526031
v 9.928299 0.000000 4.769731
v 9.886993 0.000000 4.629294
v 9.812644 -0.000000 3.542969
v 9.928299 0.000000 4.926691
v 9.874602 0.000000 5.067128
v 9.779600 0.000000 5.174521
v 9.672207 0.000000 5.248871
v 9.511117 0.000000 5.290176
v 9.325244 0.000000 5.265393
v 9.205459 0.000000 5.191043
v 9.114588 0.000000 5.120825
v 9.907646 -0.000000 3.373617
v 9.944820 -0.000000 3.208397
v 9.911777 -0.000000 3.063829
v 9.829166 -0.000000 2.919261
v 9.742426 -0.000000 2.832520
v 9.626771 -0.000000 2.770562
v 9.511117 -0.000000 2.762301
v 9.383071 -0.000000 2.774693
v 9.279808 -0.000000 2.824259
v 9.201328 -0.000000 2.894478
v 9.131109 -0.000000 2.956436
v 8.399291 -0.000000 3.542969
v 8.407552 0.000000 4.526031
v 8.283636 0.000000 4.769731
v 8.324942 0.000000 4.629294
v 8.399291 -0.000000 3.542969
v 8.283636 0.000000 4.926691
v 8.337333 0.000000 5.067128
v 8.432335 0.000000 5.174521
v 8.539728 0.000000 5.248871
v 8.700818 0.000000 5.290176
v 8.886691 0.000000 5.265393
v 9.006476 0.000000 5.191043
v 9.097347 0.000000 5.120825
v 8.304289 -0.000000 3.373618
v 8.267115 -0.000000 3.208397
v 8.300159 -0.000000 3.063829
v 8.382769 -0.000000 2.919261
v 8.469509 -0.000000 2.832520
v 8.585164 -0.000000 2.770562
v 8.700818 -0.000000 2.762302
v 8.828864 -0.000000 2.774693
v 8.932127 -0.000000 2.824259
v 9.010607 -0.000000 2.894478
v 9.080826 -0.000000 2.956436
v 9.804383 0.000000 4.526031
v 9.928299 0.000000 4.769731
v 9.886993 0.000000 4.629294
v 9.812644 -0.000000 3.542969
v 9.928299 0.000000 4.926691
v 9.874602 0.000000 5.067128
v 9.779600 0.000000 5.174521
v 9.672207 0.000000 5.248871
v 9.511117 0.000000 5.290176
v 9.325244 0.000000 5.265393
v 9.205459 0.000000 5.191043
v 9.114588 0.000000 5.120825
v 9.907646 -0.000000 3.373617
v 9.944820 -0.000000 3.208397
v 9.911777 -0.000000 3.063829
v 9.829166 -0.000000 2.919261
v 9.742426 -0.000000 2.832520
v 9.626771 -0.000000 2.770562
v 9.511117 -0.000000 2.762301
v 9.383071 -0.000000 2.774693
v 9.279808 -0.000000 2.824259
v 9.201328 -0.000000 2.894478
v 9.131109 -0.000000 2.956436
v 8.399291 -0.000000 3.542969
v 8.407552 0.449012 4.526031
v 8.283636 0.449012 4.769731
v 8.324942 0.449012 4.629294
v 8.399291 0.449012 3.542969
v 8.283636 0.449012 4.926691
v 8.337333 0.449012 5.067128
v 8.432335 0.449012 5.174521
v 8.539728 0.449012 5.248871
v 8.700818 0.449012 5.290176
v 8.886691 0.449012 5.265393
v 9.006476 0.449012 5.191043
v 9.097347 0.449012 5.120825
v 8.304289 0.449012 3.373618
v 8.267115 0.449012 3.208397
v 8.300159 0.449012 3.063829
v 8.382769 0.449012 2.919261
v 8.469509 0.449012 2.832520
v 8.585164 0.449012 2.770562
v 8.700818 0.449012 2.762302
v 8.828864 0.449012 2.774693
v 8.932127 0.449012 2.824259
v 9.010607 0.449012 2.894478
v 9.080826 0.449012 2.956436
v 9.804383 0.449012 4.526031
v 9.928299 0.449012 4.769731
v 9.886993 0.449012 4.629294
v 9.812644 0.449012 3.542969
v 9.928299 0.449012 4.926691
v 9.874602 0.449012 5.067128
v 9.779600 0.449012 5.174521
v 9.672207 0.449012 5.248871
v 9.511117 0.449012 5.290176
v 9.325244 0.449012 5.265393
v 9.205459 0.449012 5.191043
v 9.114588 0.449012 5.120825
v 9.907646 0.449012 3.373617
v 9.944820 0.449012 3.208397
v 9.911777 0.449012 3.063829
v 9.829166 0.449012 2.919261
v 9.742426 0.449012 2.832520
v 9.626771 0.449012 2.770562
v 9.511117 0.449012 2.762301
v 9.383071 0.449012 2.774693
v 9.279808 0.449012 2.824259
v 9.201328 0.449012 2.894478
v 9.131109 0.449012 2.956436
v 8.399291 0.449012 3.542969
v 8.778664 0.449012 3.297921
v 8.939295 0.449012 3.223342
v 9.114268 0.449012 3.188922
v 9.326531 0.449012 3.223343
v 9.484294 0.449012 3.315132
v 9.610504 0.449012 3.444210
v 9.687951 0.449012 3.604842
v 9.705161 0.449012 3.797025
v 9.710898 0.449012 4.020761
v 9.713767 0.449012 4.204340
v 9.705161 0.449012 4.399392
v 9.639188 0.449012 4.557155
v 9.550267 0.449012 4.694838
v 9.409715 0.449012 4.786627
v 9.243347 0.449012 4.849733
v 9.036821 0.449012 4.849732
v 8.821691 0.449012 4.786627
v 8.663927 0.449012 4.643207
v 8.554928 0.449012 4.462497
v 8.534849 0.449012 4.215813
v 8.517638 0.449012 4.003551
v 8.520507 0.449012 3.797025
v 8.549191 0.449012 3.596236
v 8.638112 0.449012 3.435605
v 8.778664 0.132094 3.297921
v 8.939295 0.132094 3.223342
v 9.114268 0.132094 3.188922
v 9.326531 0.132094 3.223343
v 9.484294 0.132094 3.315132
v 9.610504 0.132094 3.444210
v 9.687951 0.132094 3.604842
v 9.705161 0.132094 3.797025
v 9.710898 0.132094 4.020761
v 9.713767 0.132094 4.204340
v 9.705161 0.132094 4.399392
v 9.639188 0.132094 4.557155
v 9.550267 0.132094 4.694838
v 9.409715 0.132094 4.786627
v 9.243347 0.132094 4.849733
v 9.036821 0.132094 4.849732
v 8.821691 0.132094 4.786627
v 8.663927 0.132094 4.643207
v 8.554928 0.132094 4.462497
v 8.534849 0.132094 4.215813
v 8.517638 0.132094 4.003551
v 8.520507 0.132094 3.797025
v 8.549191 0.132094 3.596236
v 8.638112 0.132094 3.435605
v 9.741991 0.206203 4.929856
v 9.741990 0.206203 3.142104
v 8.492389 0.206203 4.929856
v 8.492388 0.206203 3.142104
v 8.492389 0.253160 4.929856
v 9.741991 0.253160 4.929856
v 9.741990 0.253160 3.142104
v 8.492388 0.253160 3.142104
vn -0.0000 1.0000 -0.0000
vn -0.0000 -0.0000 1.0000
vn -0.0000 -0.0000 -1.0000
vn -0.0000 1.0000 0.0001
vn -0.0000 -0.0000 -0.0000
vn -0.0592 -0.0000 -0.9982
vn 0.3373 -0.0000 -0.9414
vn -0.0000 -1.0000 -0.0000
vn -0.6114 -0.0000 -0.7913
vn -0.5702 -0.0000 -0.8215
vn -0.0126 -0.0000 0.9999
vn -0.2687 -0.0000 0.9632
vn 0.5702 -0.0000 -0.8215
vn 0.2778 -0.0000 0.9606
vn 0.9898 -0.0000 0.1425
vn 0.8868 -0.0000 0.4621
vn 0.6114 -0.0000 -0.7913
vn 0.7947 -0.0000 0.6070
vn 0.5961 -0.0000 0.8029
vn 0.0592 -0.0000 -0.9982
vn 0.4153 -0.0000 -0.9097
vn -0.9337 -0.0000 -0.3581
vn -0.9664 -0.0000 -0.2569
vn 0.6639 -0.0000 -0.7478
vn 0.8553 -0.0000 -0.5182
vn -1.0000 -0.0000 0.0017
vn -0.6642 -0.0000 0.7475
vn -0.6616 -0.0000 0.7498
vn -0.9316 -0.0000 0.3634
vn -0.9834 -0.0000 -0.1816
vn -0.8553 -0.0000 -0.5182
vn 0.9834 -0.0000 -0.1816
vn -0.7947 -0.0000 0.6070
vn -0.9898 -0.0000 0.1425
vn -0.3373 -0.0000 -0.9414
vn -0.5961 -0.0000 0.8029
vn -0.8868 -0.0000 0.4621
vn 0.9316 -0.0000 0.3634
vn -0.2779 -0.0000 0.9606
vn -0.7809 -0.0000 0.6247
vn 0.0126 -0.0000 0.9999
vn -0.5553 -0.0000 0.8317
vn -1.0000 -0.0000 -0.0084
vn 0.8721 -0.0000 -0.4893
vn 0.9337 -0.0000 -0.3581
vn 0.2687 -0.0000 0.9632
vn -0.6639 -0.0000 -0.7478
vn 1.0000 -0.0000 0.0017
vn 0.5553 -0.0000 0.8317
vn 1.0000 -0.0000 -0.0084
vn -0.4153 -0.0000 -0.9097
vn 0.6642 -0.0000 0.7475
vn 0.7809 -0.0000 0.6247
vn 0.6616 -0.0000 0.7498
vn 0.6145 -0.0000 -0.7889
vn 0.8187 -0.0000 -0.5743
vn -0.9967 -0.0000 0.0810
vn -0.9994 -0.0000 0.0335
vn 0.7089 -0.0000 0.7053
vn 0.4534 -0.0000 0.8913
vn 0.9640 -0.0000 -0.2660
vn -0.9970 -0.0000 -0.0778
vn 0.1803 -0.0000 0.9836
vn 0.9983 -0.0000 -0.0574
vn -0.9481 -0.0000 -0.3181
vn -0.1422 -0.0000 0.9898
vn 0.9998 -0.0000 -0.0206
vn -0.7957 -0.0000 -0.6057
vn -0.5687 -0.0000 -0.8226
vn -0.3093 -0.0000 -0.9510
vn -0.4895 -0.0000 0.8720
vn 0.9999 -0.0000 0.0142
vn -0.0167 -0.0000 -0.9999
vn -0.7726 -0.0000 0.6349
vn 0.9759 -0.0000 0.2183
vn 0.3371 -0.0000 -0.9415
vn -0.9517 -0.0000 0.3069
vn 0.8848 -0.0000 0.4660
vn -1.0000 -0.0000 -0.0000
vn 1.0000 -0.0000 -0.0000
vt 0.000000 0.000000
vt 0.000000 1.000000
vt 1.000000 1.000000
vt 1.000000 0.000000
s 0
usemtl Material.014
f 45/1/1 44/1/2 91/1/1 92/1/3
f 42/1/1 41/1/2 88/1/1 89/1/3
f 4/1/1 13/1/2 60/1/4 51/1/3
f 24/1/1 26/1/2 73/1/1 71/1/3
f 2/1/1 3/1/3 50/1/1 49/1/2
f 26/1/1 25/1/2 72/1/1 73/1/3
f 13/1/1 14/1/2 61/1/1 60/1/3
f 30/1/1 31/1/3 78/1/1 77/1/2
f 40/1/4 39/1/3 86/1/1 87/1/2
f 27/1/5 24/1/5 71/1/5 74/1/5
f 44/1/1 43/1/2 90/1/4 91/1/2
f 12/1/1 11/1/3 58/1/1 59/1/3
f 43/1/1 42/1/3 89/1/1 90/1/2
f 29/1/4 30/1/3 77/1/1 76/1/2
s 1
f 79/1/6 80/1/7 127/1/7 126/1/6
s 0
f 6/1/1 5/1/2 52/1/1 53/1/3
f 4/1/3 47/1/3 94/1/3 51/1/3
f 5/1/5 2/1/5 49/1/5 52/1/5
f 15/1/1 16/1/2 63/1/1 62/1/2
f 14/1/1 15/1/2 62/1/1 61/1/2
f 16/1/1 17/1/2 64/1/4 63/1/3
f 41/1/1 40/1/3 87/1/1 88/1/2
s 1
f 14/1/1 13/1/1 4/1/1 1/1/1 3/1/1 2/1/1 5/1/1 6/1/1 7/1/1 8/1/1 9/1/1 10/1/1 11/1/1 12/1/1 35/1/1 34/1/1 33/1/1 32/1/1 31/1/1 30/1/1 29/1/1 28/1/1 25/1/1 26/1/1 24/1/1 27/1/1 36/1/1 37/1/1 38/1/1 39/1/1 40/1/1 41/1/1 42/1/1 43/1/1 44/1/1 45/1/1 46/1/1 23/1/1 22/1/1 21/1/1 20/1/1 19/1/1 18/1/1 17/1/1 16/1/1 15/1/1
s 0
f 31/1/1 32/1/3 79/1/1 78/1/2
f 17/1/1 18/1/2 65/1/1 64/1/3
f 46/1/1 45/1/2 92/1/4 93/1/2
f 3/1/1 1/1/3 48/1/1 50/1/2
f 32/1/1 33/1/2 80/1/1 79/1/3
f 18/1/1 19/1/3 66/1/1 65/1/2
f 1/1/5 4/1/5 51/1/5 48/1/5
f 33/1/1 34/1/3 81/1/1 80/1/3
f 19/1/1 20/1/2 67/1/1 66/1/3
f 7/1/1 6/1/2 53/1/4 54/1/3
f 34/1/1 35/1/3 82/1/1 81/1/3
f 20/1/4 21/1/2 68/1/1 67/1/2
f 8/1/1 7/1/2 54/1/1 55/1/3
f 36/1/4 27/1/3 74/1/1 83/1/2
f 21/1/1 22/1/3 69/1/1 68/1/2
f 9/1/1 8/1/2 55/1/1 56/1/3
f 37/1/1 36/1/3 83/1/1 84/1/2
f 22/1/4 23/1/2 70/1/1 69/1/2
f 10/1/1 9/1/3 56/1/1 57/1/2
f 38/1/1 37/1/2 84/1/1 85/1/2
f 35/1/1 12/1/3 59/1/1 82/1/3
f 28/1/1 29/1/3 76/1/1 75/1/2
f 11/1/1 10/1/3 57/1/1 58/1/3
f 39/1/1 38/1/2 85/1/1 86/1/2
f 25/1/5 28/1/5 75/1/5 72/1/5
f 23/1/1 46/1/3 93/1/1 70/1/3
s 1
f 108/1/8 109/1/8 110/1/8 111/1/8 112/1/8 113/1/8 114/1/8 115/1/8 116/1/8 117/1/8 140/1/8 139/1/8 138/1/8 137/1/8 136/1/8 135/1/8 134/1/8 133/1/8 132/1/8 131/1/8 130/1/8 121/1/8 118/1/8 151/1/8 150/1/8 149/1/8 148/1/8 147/1/8 146/1/8 145/1/8 144/1/8 143/1/8 142/1/8 165/1/8 164/1/8 163/1/8 162/1/8 98/1/8 107/1/8
f 59/1/9 58/1/10 105/1/10 106/1/9
f 70/1/2 93/1/2 140/1/2 117/1/2
f 66/1/11 67/1/12 114/1/12 113/1/11
f 80/1/7 81/1/13 128/1/13 127/1/7
f 65/1/14 66/1/11 113/1/11 112/1/14
f 82/1/3 59/1/3 106/1/3 129/1/3
f 49/1/15 50/1/16 97/1/16 96/1/15
f 81/1/13 82/1/17 129/1/17 128/1/13
f 63/1/18 64/1/19 111/1/19 110/1/18
s 0
f 51/1/3 94/1/1 141/1/3 98/1/1
s 1
f 56/1/20 55/1/21 102/1/21 103/1/20
f 83/1/22 74/1/23 121/1/23 130/1/22
f 54/1/24 53/1/25 100/1/25 101/1/24
f 84/1/26 83/1/22 130/1/22 131/1/26
f 69/1/27 70/1/28 117/1/28 116/1/27
f 64/1/19 65/1/14 112/1/14 111/1/19
f 85/1/29 84/1/26 131/1/26 132/1/29
f 75/1/30 76/1/31 123/1/31 122/1/30
f 52/1/32 49/1/15 96/1/15 99/1/32
f 86/1/33 85/1/29 132/1/29 133/1/33
f 72/1/34 75/1/30 122/1/30 119/1/34
f 58/1/10 57/1/35 104/1/35 105/1/10
f 87/1/36 86/1/33 133/1/33 134/1/36
f 55/1/21 54/1/24 101/1/24 102/1/21
f 73/1/37 72/1/34 119/1/34 120/1/37
f 62/1/38 63/1/18 110/1/18 109/1/38
f 88/1/39 87/1/36 134/1/36 135/1/39
f 57/1/35 56/1/20 103/1/20 104/1/35
f 71/1/40 73/1/37 120/1/37 118/1/40
f 53/1/25 52/1/32 99/1/32 100/1/25
f 89/1/41 88/1/39 135/1/39 136/1/41
f 68/1/42 69/1/27 116/1/27 115/1/42
f 74/1/23 71/1/43 118/1/43 121/1/23
f 51/1/44 60/1/45 107/1/45 98/1/44
f 90/1/46 89/1/41 136/1/41 137/1/46
f 67/1/12 68/1/42 115/1/42 114/1/12
f 76/1/31 77/1/47 124/1/47 123/1/31
f 60/1/45 61/1/48 108/1/48 107/1/45
f 91/1/49 90/1/46 137/1/46 138/1/49
f 48/1/50 51/1/50 98/1/50 95/1/50
f 77/1/47 78/1/51 125/1/51 124/1/47
f 92/1/52 91/1/49 138/1/49 139/1/52
f 50/1/16 48/1/53 95/1/53 97/1/16
f 78/1/51 79/1/6 126/1/6 125/1/51
f 61/1/48 62/1/38 109/1/38 108/1/48
f 93/1/54 92/1/52 139/1/52 140/1/54
f 176/1/8 177/1/8 178/1/8 179/1/8 180/1/8 181/1/8 182/1/8 183/1/8 184/1/8 185/1/8 186/1/8 187/1/8 188/1/8 189/1/8 166/1/8 167/1/8 168/1/8 169/1/8 170/1/8 171/1/8 172/1/8 173/1/8 174/1/8 175/1/8
f 98/1/8 162/1/8 161/1/8 160/1/8 159/1/8 158/1/8 157/1/8 156/1/8 155/1/8 154/1/8 153/1/8 152/1/8 151/1/8 118/1/8 120/1/8 119/1/8 122/1/8 123/1/8 124/1/8 125/1/8 126/1/8 127/1/8 128/1/8 129/1/8 106/1/8 105/1/8 104/1/8 103/1/8 102/1/8 101/1/8 100/1/8 99/1/8 96/1/8 97/1/8 95/1/8
f 146/1/55 147/1/56 171/1/56 170/1/55
f 161/1/57 162/1/58 186/1/58 185/1/57
f 154/1/59 155/1/60 179/1/60 178/1/59
f 147/1/56 148/1/61 172/1/61 171/1/56
f 162/1/58 163/1/62 187/1/62 186/1/58
f 155/1/60 156/1/63 180/1/63 179/1/60
f 148/1/61 149/1/64 173/1/64 172/1/61
f 163/1/62 164/1/65 188/1/65 187/1/62
f 156/1/63 157/1/66 181/1/66 180/1/63
f 149/1/64 150/1/67 174/1/67 173/1/64
f 164/1/65 165/1/68 189/1/68 188/1/65
f 142/1/69 143/1/70 167/1/70 166/1/69
f 157/1/66 158/1/71 182/1/71 181/1/66
f 150/1/67 151/1/72 175/1/72 174/1/67
f 165/1/68 142/1/69 166/1/69 189/1/68
f 143/1/70 144/1/73 168/1/73 167/1/70
f 158/1/71 159/1/74 183/1/74 182/1/71
f 151/1/72 152/1/75 176/1/75 175/1/72
f 144/1/73 145/1/76 169/1/76 168/1/73
f 159/1/74 160/1/77 184/1/77 183/1/74
f 152/1/75 153/1/78 177/1/78 176/1/75
f 145/1/76 146/1/55 170/1/55 169/1/76
f 160/1/77 161/1/57 185/1/57 184/1/77
f 153/1/78 154/1/59 178/1/59 177/1/78
usemtl Material.013
f 190/1/8 192/2/8 193/3/8 191/4/8
f 195/1/1 196/4/1 197/3/1 194/2/1
f 193/3/79 192/2/79 194/2/79 197/3/79
f 190/1/80 191/4/80 196/4/80 195/1/80
f 191/4/3 193/3/3 197/3/3 196/4/3
f 192/2/2 190/1/2 195/1/2 194/2/2
